HIERARCHY
ROOT root
{
	OFFSET 0.000000 0.000000 0.000000
	CHANNELS 6 Xposition Yposition Zposition Zrotation Yrotation Xrotation
	JOINT lhip
	{
		OFFSET 0.058581 -0.082280 -0.017664
		CHANNELS 3 Zrotation Yrotation Xrotation
		JOINT lknee
		{
			OFFSET 0.043451 -0.386469 0.008037
			CHANNELS 3 Zrotation Yrotation Xrotation
			JOINT lankle
			{
				OFFSET -0.014790 -0.426874 -0.037428
				CHANNELS 3 Zrotation Yrotation Xrotation
				JOINT ltoe
				{
					OFFSET 0.041054 -0.060286 0.122042
					CHANNELS 3 Zrotation Yrotation Xrotation
					End Site
					{
						OFFSET 0.000000 0.000000 0.000000
					}
				}
			}
		}
	}
	JOINT rhip
	{
		OFFSET -0.060310 -0.090513 -0.013543
		CHANNELS 3 Zrotation Yrotation Xrotation
		JOINT rknee
		{
			OFFSET -0.043257 -0.383688 -0.004843
			CHANNELS 3 Zrotation Yrotation Xrotation
			JOINT rankle
			{
				OFFSET 0.019056 -0.420046 -0.034562
				CHANNELS 3 Zrotation Yrotation Xrotation
				JOINT rtoe
				{
					OFFSET -0.034840 -0.062106 0.130323
					CHANNELS 3 Zrotation Yrotation Xrotation
					End Site
					{
						OFFSET 0.000000 0.000000 0.000000
					}
				}
			}
		}
	}
	JOINT lowerback
	{
		OFFSET 0.004439 0.124404 -0.038385
		CHANNELS 3 Zrotation Yrotation Xrotation
		JOINT upperback
		{
			OFFSET 0.004488 0.137956 0.026820
			CHANNELS 3 Zrotation Yrotation Xrotation
			JOINT chest
			{
				OFFSET -0.002265 0.056032 0.002855
				CHANNELS 3 Zrotation Yrotation Xrotation
				JOINT lowerneck
				{
					OFFSET -0.013390 0.211636 -0.033468
					CHANNELS 3 Zrotation Yrotation Xrotation
					JOINT upperneck
					{
						OFFSET 0.010113 0.088937 0.050410
						CHANNELS 3 Zrotation Yrotation Xrotation
						End Site
						{
							OFFSET 0.000000 0.000000 0.000000
						}
					}
				}
				JOINT lclavicle
				{
					OFFSET 0.071702 0.114000 -0.018898
					CHANNELS 3 Zrotation Yrotation Xrotation
					JOINT lshoulder
					{
						OFFSET 0.122921 0.045205 -0.019046
						CHANNELS 3 Zrotation Yrotation Xrotation
						JOINT lelbow
						{
							OFFSET 0.255332 -0.015649 -0.022946
							CHANNELS 3 Zrotation Yrotation Xrotation
							JOINT lwrist
							{
								OFFSET 0.265709 0.012698 -0.007375
								CHANNELS 3 Zrotation Yrotation Xrotation
								End Site
								{
									OFFSET 0.000000 0.000000 0.000000
								}
							}
						}
					}
				}
				JOINT rclavicle
				{
					OFFSET -0.082954 0.112472 -0.023707
					CHANNELS 3 Zrotation Yrotation Xrotation
					JOINT rshoulder
					{
						OFFSET -0.113228 0.046853 -0.008472
						CHANNELS 3 Zrotation Yrotation Xrotation
						JOINT relbow
						{
							OFFSET -0.260127 -0.014369 -0.031269
							CHANNELS 3 Zrotation Yrotation Xrotation
							JOINT rwrist
							{
								OFFSET -0.269108 0.006794 -0.006027
								CHANNELS 3 Zrotation Yrotation Xrotation
								End Site
								{
									OFFSET 0.000000 0.000000 0.000000
								}
							}
						}
					}
				}
			}
		}
	}
}
MOTION
Frames: 7
Frame Time: 0.033333
-0.015186 0.735689 0.907109 175.097954 -2.063525 93.558851 11.642191 7.130665 -42.573846 -11.998609 5.244382 47.940181 4.433881 7.877191 -20.659560 0.000000 -0.000000 0.000000 -10.105655 -7.968737 -24.933330 -0.336937 -5.266842 63.828277 2.374164 -11.139243 -36.885120 0.000000 -0.000000 0.000000 -0.327676 5.183852 33.622035 -1.156747 -2.687651 4.912801 0.258808 -0.303514 -4.992312 -3.177127 5.081973 -10.402178 -0.639340 -1.100828 0.565197 -23.036463 -3.656609 -6.657706 -48.350847 -24.091176 8.015972 35.957289 -57.965361 -32.315986 -9.848826 -12.439554 5.957925 32.737526 13.590025 1.772033 35.263130 25.548941 -1.752671 -23.957574 33.459221 -29.488580 10.869520 11.048135 13.089578 
-0.021065 0.740713 0.907490 174.875329 -1.756789 93.787118 11.610631 7.112440 -42.728025 -11.765177 5.665736 48.512590 4.629083 7.915187 -21.215746 0.000000 -0.000000 0.000000 -10.275533 -7.807882 -24.609603 -0.346511 -5.238182 63.310344 2.499984 -10.882128 -36.679170 0.000000 -0.000000 0.000000 -0.354523 5.263807 33.736417 -1.062916 -2.759715 4.833518 0.293673 -0.408771 -5.152295 -3.199238 5.321345 -10.173270 -0.579202 -1.344972 0.460320 -22.954171 -3.596649 -6.401095 -48.682414 -24.590974 7.963751 35.794360 -57.425679 -32.225291 -9.885454 -12.504682 5.856538 32.806389 13.377138 1.777761 36.371638 24.947989 -1.181876 -24.470335 34.008720 -29.660806 10.896283 11.316657 12.569489 
-0.026576 0.745275 0.907598 174.636869 -1.517997 94.017016 11.545218 7.084244 -42.850479 -11.745774 5.841326 48.930448 4.819734 8.236307 -21.649081 0.000000 -0.000000 0.000000 -10.405098 -7.707124 -24.324396 -0.267852 -5.051017 62.777826 2.668720 -10.899822 -36.493907 0.000000 -0.000000 0.000000 -0.443053 5.373390 33.641031 -1.025680 -2.889904 4.953555 0.295107 -0.354150 -5.112652 -3.152170 5.647567 -10.163733 -0.703926 -1.424363 0.532011 -22.769267 -3.955171 -6.258660 -48.869961 -25.040256 7.878971 35.526058 -56.719732 -32.249238 -9.762568 -12.373500 5.605262 32.830256 13.494400 1.814654 37.388112 23.890416 -0.902929 -25.183215 35.203526 -30.271324 10.339874 11.244027 11.824527 
-0.031787 0.749513 0.907434 174.239898 -1.309966 94.192460 11.567069 7.025866 -42.972551 -11.808644 6.110065 49.575418 5.071772 8.542971 -22.179832 0.000000 -0.000000 0.000000 -10.514215 -7.641965 -24.161642 -0.247157 -4.768780 62.468523 2.709184 -10.759322 -36.332115 0.000000 -0.000000 0.000000 -0.580527 5.654618 33.190514 -0.989015 -2.948734 5.724692 0.301428 -0.439011 -5.361066 -3.142467 6.180725 -10.172489 -0.885690 -1.659421 0.647270 -22.468919 -4.579935 -5.802400 -48.934357 -25.299336 7.546493 35.887374 -55.630395 -32.382711 -10.318272 -11.943750 6.226603 32.779219 13.742312 1.921633 38.681529 22.950548 -0.526023 -26.534801 36.123057 -31.224636 10.644025 11.418632 10.768832 
-0.036270 0.753423 0.907620 174.045255 -1.142496 94.365146 11.544599 7.002933 -43.044371 -11.652668 6.490552 49.931986 5.315190 8.555222 -22.568485 0.000000 -0.000000 0.000000 -10.648377 -7.559609 -23.934691 -0.271516 -4.714358 62.111995 2.780990 -10.729272 -36.105595 0.000000 -0.000000 0.000000 -0.680952 5.776006 33.271823 -1.024650 -3.025744 5.451990 0.294508 -0.465794 -5.359938 -3.233259 6.416209 -9.849346 -0.686659 -1.767781 0.611325 -22.391364 -4.944590 -5.592922 -48.834905 -25.687247 7.525421 34.942681 -54.252003 -31.518162 -10.756468 -11.930054 6.216827 32.717934 13.583166 1.838811 40.234765 21.913628 -0.002206 -27.804232 37.300139 -32.231213 10.779081 11.873927 9.637247 
-0.040151 0.756928 0.907313 173.846113 -0.931209 94.556491 11.515115 7.075210 -43.182651 -11.548005 6.693631 50.309950 5.407720 8.622803 -23.043695 0.000000 -0.000000 0.000000 -10.755653 -7.444327 -23.836059 -0.276258 -4.715965 61.926214 2.985456 -10.470428 -36.076964 0.000000 -0.000000 0.000000 -0.779635 5.893274 32.985953 -1.020304 -3.080791 5.747898 0.329481 -0.621259 -5.472297 -3.339572 7.025335 -9.684759 -0.743234 -1.868066 0.498293 -22.281549 -5.390807 -5.474826 -48.762781 -25.716540 7.458176 34.388624 -52.947914 -30.939954 -11.117941 -12.201515 6.430471 32.786527 13.593079 1.680513 41.611691 20.791319 0.658369 -29.209513 38.504767 -33.049095 10.453519 12.640671 8.732583 
-0.043260 0.759928 0.907035 173.728113 -0.730948 94.681072 11.537155 7.009015 -43.329563 -11.680292 6.671075 50.697850 5.538713 9.038666 -23.459540 0.000000 -0.000000 0.000000 -10.805396 -7.475499 -23.633205 -0.285175 -4.707711 61.682584 3.071854 -10.445452 -36.077617 0.000000 -0.000000 0.000000 -0.887151 5.972007 32.984205 -0.946904 -3.302724 5.491980 0.360052 -0.718218 -5.181671 -3.396757 7.381605 -9.845453 -0.819104 -1.978982 0.449427 -22.220488 -5.588808 -5.450019 -48.735118 -25.870583 7.177528 33.734040 -52.030428 -30.385451 -11.324661 -11.612314 6.769178 33.014563 13.368277 1.735905 42.437648 19.543677 0.658325 -30.328855 41.447469 -33.807810 10.492670 12.463162 8.549052 
